<?xml version="1.0" standalone="no"?>
<!DOCTYPE svg PUBLIC "-//W3C//DTD SVG 20010904//EN"
 "http://www.w3.org/TR/2001/REC-SVG-20010904/DTD/svg10.dtd">
<svg version="1.0" xmlns="http://www.w3.org/2000/svg"
 width="512.000000pt" height="512.000000pt" viewBox="0 0 512.000000 512.000000"
 preserveAspectRatio="xMidYMid meet">

<g transform="translate(0.000000,512.000000) scale(0.100000,-0.100000)"
fill="#000000" stroke="none">
<path d="M2330 5109 c-204 -19 -464 -77 -646 -144 -55 -20 -166 -69 -249 -110
-281 -138 -451 -260 -680 -490 -230 -229 -352 -399 -490 -680 -89 -181 -135
-304 -180 -479 -113 -445 -113 -847 0 -1292 45 -175 91 -298 180 -479 138
-281 260 -451 490 -680 229 -230 399 -352 680 -490 181 -89 304 -135 479 -180
445 -113 847 -113 1292 0 175 45 298 91 479 180 281 138 451 260 680 490 230
229 352 399 490 680 89 181 135 304 180 479 113 445 113 847 0 1292 -45 175
-91 298 -180 479 -138 281 -260 451 -490 680 -229 230 -399 352 -680 490 -181
89 -304 135 -479 180 -297 76 -595 101 -876 74z m-427 -1647 c306 -85 458
-318 392 -600 -21 -87 -48 -137 -116 -208 l-59 -61 42 -19 c97 -43 200 -178
227 -295 29 -123 6 -292 -52 -392 -58 -98 -196 -191 -342 -230 -113 -30 -240
-37 -727 -37 l-488 0 0 936 0 935 523 -3 c499 -4 525 -5 600 -26z m1592 -597
c275 -343 503 -624 508 -624 4 -1 7 280 7 624 l0 625 165 0 165 0 0 -935 0
-935 -134 0 -134 0 -503 626 -504 627 -3 -627 -2 -626 -170 0 -170 0 0 935 0
935 138 -1 137 0 500 -624z"/>
<path d="M1120 2956 l0 -246 278 0 c300 0 376 9 461 53 26 14 59 43 76 66 24
35 30 54 33 112 3 42 -1 82 -8 102 -20 50 -79 105 -140 129 -52 22 -71 23
-377 26 l-323 3 0 -245z"/>
<path d="M1120 2164 l0 -255 358 3 c393 4 417 8 501 69 55 40 84 102 83 183 0
99 -38 168 -114 207 -83 43 -145 49 -495 49 l-333 0 0 -256z"/>
</g>
</svg>
